<?xml version="1.0" encoding="UTF-8"?>
<svg xmlns="http://www.w3.org/2000/svg" xmlns:xlink="http://www.w3.org/1999/xlink" width="16px" height="16px" viewBox="0 0 16 15" version="1.1">
<g id="surface1">
<path style=" stroke:none;fill-rule:nonzero;fill:rgb(80.000001%,60.392159%,21.176471%);fill-opacity:1;" d="M 7.066406 0.871094 C 7.03125 0.847656 6.863281 0.699219 6.839844 0.785156 C 6.828125 0.824219 6.90625 0.875 6.929688 0.898438 C 7.03125 1.003906 7.09375 1.070312 7.140625 1.203125 C 6.914062 1.265625 6.667969 1.328125 6.433594 1.332031 C 6.355469 1.335938 6.273438 1.320312 6.195312 1.316406 C 6.105469 1.316406 5.910156 1.261719 5.855469 1.34375 L 6.449219 1.367188 L 6.835938 1.351562 C 6.765625 1.433594 6.695312 1.550781 6.589844 1.597656 C 6.503906 1.636719 6.230469 1.53125 6.238281 1.667969 C 6.304688 1.667969 6.5 1.640625 6.546875 1.683594 C 6.578125 1.710938 6.539062 1.75 6.523438 1.773438 C 6.480469 1.835938 6.417969 1.960938 6.339844 1.988281 C 6.261719 2.015625 6.160156 2.015625 6.074219 2.027344 C 6.046875 2.035156 5.996094 2.035156 5.984375 2.066406 C 5.964844 2.152344 6.183594 2.09375 6.230469 2.101562 C 6.269531 2.109375 6.285156 2.152344 6.332031 2.140625 C 6.480469 2.09375 6.574219 1.863281 6.671875 1.753906 C 6.710938 1.824219 6.792969 1.800781 6.863281 1.8125 C 6.976562 1.832031 7.09375 1.867188 7.167969 1.953125 C 7.105469 1.941406 7.042969 1.917969 6.984375 1.894531 L 6.863281 1.855469 C 6.847656 1.847656 6.828125 1.839844 6.808594 1.835938 C 6.640625 1.804688 6.785156 1.96875 6.847656 2.003906 C 6.929688 2.054688 7.039062 2.042969 7.128906 2.03125 C 7.160156 2.03125 7.261719 2.03125 7.269531 1.992188 C 7.277344 1.949219 7.191406 1.871094 7.164062 1.839844 C 7.027344 1.679688 6.847656 1.59375 6.671875 1.753906 C 6.714844 1.683594 6.8125 1.523438 6.910156 1.511719 C 6.972656 1.5 7.054688 1.539062 7.113281 1.558594 C 7.09375 1.464844 6.992188 1.496094 6.929688 1.445312 C 6.898438 1.421875 6.910156 1.367188 6.902344 1.332031 C 7.171875 1.300781 7.402344 1.238281 7.671875 1.328125 C 7.769531 1.359375 7.890625 1.421875 7.933594 1.515625 C 7.964844 1.582031 7.949219 1.683594 7.949219 1.753906 C 7.949219 1.949219 7.929688 2.140625 7.929688 2.332031 C 7.753906 2.324219 7.644531 2.140625 7.460938 2.117188 C 7.183594 2.085938 6.867188 2.074219 6.589844 2.121094 C 6.394531 2.152344 6.21875 2.242188 6.027344 2.273438 C 5.929688 2.292969 5.832031 2.257812 5.734375 2.273438 C 5.769531 2.242188 5.8125 2.226562 5.84375 2.195312 C 5.886719 2.15625 6 2.019531 5.890625 1.992188 C 5.828125 1.976562 5.738281 2.027344 5.679688 2.042969 C 5.519531 2.078125 5.300781 2.09375 5.164062 1.988281 L 5.671875 1.988281 C 5.714844 1.988281 5.8125 1.992188 5.832031 1.941406 C 5.863281 1.871094 5.667969 1.796875 5.617188 1.785156 C 5.410156 1.726562 5.148438 1.863281 4.992188 1.980469 L 4.992188 1.988281 C 5.128906 2.089844 5.332031 2.238281 5.515625 2.253906 L 5.515625 2.261719 L 5.109375 2.28125 L 5.109375 2.289062 C 5.28125 2.355469 5.457031 2.351562 5.632812 2.359375 C 5.773438 2.363281 5.914062 2.375 6.054688 2.375 C 6.039062 2.453125 5.960938 2.507812 5.917969 2.574219 C 5.828125 2.707031 5.8125 2.957031 5.671875 3.050781 C 5.59375 3.105469 5.507812 3.035156 5.421875 3.050781 C 5.34375 3.0625 5.269531 3.101562 5.195312 3.121094 C 5 3.171875 4.839844 3.160156 4.652344 3.097656 L 4.652344 3.089844 C 4.855469 3.082031 5.074219 3.078125 5.277344 3.054688 C 5.378906 3.042969 5.429688 2.960938 5.3125 2.917969 L 5.3125 2.910156 C 5.4375 2.929688 5.570312 2.921875 5.660156 2.832031 C 5.703125 2.789062 5.792969 2.691406 5.707031 2.652344 C 5.636719 2.617188 5.476562 2.679688 5.394531 2.683594 C 5.21875 2.691406 5.082031 2.644531 4.925781 2.574219 L 4.925781 2.566406 C 5.105469 2.566406 5.285156 2.601562 5.460938 2.617188 C 5.511719 2.621094 5.609375 2.640625 5.644531 2.589844 C 5.667969 2.558594 5.628906 2.523438 5.605469 2.503906 C 5.550781 2.453125 5.480469 2.402344 5.40625 2.382812 C 5.207031 2.324219 4.898438 2.421875 4.742188 2.539062 L 4.742188 2.546875 C 4.863281 2.636719 4.984375 2.769531 5.128906 2.824219 L 5.128906 2.832031 C 4.9375 2.816406 4.789062 2.882812 4.625 2.976562 C 4.566406 3.007812 4.488281 3.042969 4.46875 3.105469 C 4.703125 3.222656 5.019531 3.464844 5.304688 3.351562 C 5.359375 3.328125 5.40625 3.292969 5.441406 3.246094 C 5.460938 3.21875 5.476562 3.167969 5.507812 3.15625 C 5.589844 3.121094 5.738281 3.195312 5.800781 3.113281 C 5.839844 3.0625 5.84375 2.984375 5.871094 2.925781 C 5.933594 2.792969 6.003906 2.660156 6.074219 2.53125 C 6.109375 2.460938 6.132812 2.367188 6.203125 2.320312 C 6.269531 2.273438 6.355469 2.28125 6.433594 2.265625 C 6.683594 2.214844 6.902344 2.230469 7.15625 2.230469 C 7.121094 2.273438 7.074219 2.304688 7.035156 2.347656 C 7 2.390625 6.976562 2.445312 6.9375 2.484375 C 6.882812 2.535156 6.8125 2.550781 6.800781 2.625 L 6.910156 2.625 C 6.859375 2.726562 6.738281 2.894531 6.800781 3.003906 L 6.816406 3.003906 L 7.058594 2.453125 C 7.089844 2.542969 7.195312 2.542969 7.277344 2.574219 C 7.421875 2.636719 7.597656 2.734375 7.644531 2.882812 L 7.25 2.617188 C 7.214844 2.59375 7.132812 2.542969 7.089844 2.574219 C 7.035156 2.613281 7.144531 2.777344 7.171875 2.8125 C 7.285156 2.949219 7.605469 3.015625 7.78125 2.976562 C 7.714844 2.777344 7.597656 2.398438 7.332031 2.367188 C 7.226562 2.355469 7.148438 2.394531 7.058594 2.433594 C 7.085938 2.390625 7.109375 2.34375 7.15625 2.3125 C 7.261719 2.246094 7.535156 2.226562 7.644531 2.28125 C 7.707031 2.3125 7.742188 2.371094 7.792969 2.414062 C 7.828125 2.445312 7.90625 2.472656 7.921875 2.515625 C 7.945312 2.5625 7.929688 2.648438 7.929688 2.703125 C 7.929688 2.851562 7.917969 3 7.917969 3.148438 C 7.703125 3.175781 7.566406 2.960938 7.339844 2.980469 C 6.765625 3.03125 6.195312 3.195312 5.632812 3.304688 C 5.511719 3.332031 5.402344 3.382812 5.277344 3.398438 C 5.148438 3.410156 4.980469 3.40625 4.855469 3.375 C 4.765625 3.355469 4.667969 3.292969 4.578125 3.332031 L 4.578125 3.347656 C 4.871094 3.507812 5.269531 3.429688 5.589844 3.40625 C 5.550781 3.449219 5.511719 3.523438 5.460938 3.546875 C 5.414062 3.570312 5.296875 3.523438 5.285156 3.578125 C 5.152344 3.558594 5.101562 3.667969 5.011719 3.738281 C 4.867188 3.851562 4.703125 3.941406 4.515625 3.933594 L 4.515625 3.925781 C 4.605469 3.898438 4.6875 3.835938 4.769531 3.792969 C 4.832031 3.761719 4.894531 3.734375 4.953125 3.703125 C 5.003906 3.679688 5.144531 3.617188 5.121094 3.546875 C 5.113281 3.519531 5.070312 3.515625 5.046875 3.507812 C 4.964844 3.496094 4.867188 3.496094 4.789062 3.519531 C 4.640625 3.558594 4.542969 3.691406 4.460938 3.804688 C 4.433594 3.839844 4.328125 3.960938 4.359375 4.003906 C 4.390625 4.050781 4.582031 4.03125 4.632812 4.039062 C 4.84375 4.054688 5.160156 4.042969 5.261719 3.828125 C 5.292969 3.757812 5.285156 3.679688 5.285156 3.605469 L 5.449219 3.625 C 5.421875 3.722656 5.28125 3.882812 5.339844 3.976562 L 5.347656 3.976562 L 5.496094 3.667969 L 5.515625 3.667969 C 5.550781 3.726562 5.695312 3.734375 5.761719 3.757812 C 5.921875 3.8125 6.097656 3.910156 6.167969 4.0625 C 6.03125 3.984375 5.894531 3.90625 5.761719 3.824219 C 5.6875 3.777344 5.613281 3.730469 5.523438 3.761719 C 5.570312 4.101562 5.992188 4.226562 6.3125 4.15625 C 6.222656 3.84375 5.957031 3.382812 5.550781 3.578125 C 5.601562 3.515625 5.664062 3.433594 5.734375 3.390625 C 5.8125 3.34375 5.914062 3.34375 6 3.316406 C 6.242188 3.242188 6.503906 3.175781 6.753906 3.136719 C 6.84375 3.121094 6.945312 3.128906 7.03125 3.105469 L 7.039062 3.117188 C 6.953125 3.253906 6.824219 3.429688 6.789062 3.589844 C 6.722656 3.5625 6.652344 3.578125 6.578125 3.578125 C 6.414062 3.582031 6.191406 3.558594 6.082031 3.425781 C 6.230469 3.476562 6.414062 3.507812 6.570312 3.535156 C 6.605469 3.539062 6.703125 3.554688 6.71875 3.507812 C 6.738281 3.453125 6.621094 3.371094 6.578125 3.347656 C 6.394531 3.222656 6.117188 3.308594 5.929688 3.382812 C 5.953125 3.4375 6.003906 3.476562 6.046875 3.519531 C 6.191406 3.667969 6.582031 3.96875 6.753906 3.675781 L 6.761719 3.675781 L 6.734375 3.847656 L 6.816406 3.863281 C 6.832031 3.691406 6.914062 3.507812 6.984375 3.347656 C 7.011719 3.277344 7.042969 3.195312 7.101562 3.140625 C 7.171875 3.082031 7.273438 3.09375 7.359375 3.105469 C 7.546875 3.125 7.683594 3.160156 7.789062 3.320312 C 7.882812 3.457031 7.847656 3.640625 7.839844 3.796875 C 7.828125 3.941406 7.835938 4.089844 7.835938 4.234375 C 7.625 4.203125 7.496094 4.03125 7.277344 4.035156 C 7.097656 4.039062 6.875 4.046875 6.699219 4.089844 C 6.378906 4.167969 6.046875 4.3125 5.707031 4.304688 C 5.417969 4.296875 5.121094 4.285156 4.835938 4.257812 C 4.769531 4.253906 4.714844 4.222656 4.652344 4.210938 C 4.542969 4.195312 4.417969 4.203125 4.3125 4.234375 L 4.3125 4.242188 C 4.433594 4.28125 4.59375 4.257812 4.6875 4.335938 C 4.523438 4.339844 4.339844 4.40625 4.203125 4.492188 C 4.316406 4.640625 4.585938 4.8125 4.789062 4.816406 C 4.882812 4.820312 4.96875 4.765625 5.023438 4.699219 C 5.042969 4.675781 5.078125 4.632812 5.058594 4.601562 C 5.015625 4.539062 4.894531 4.597656 4.835938 4.601562 C 4.675781 4.613281 4.496094 4.621094 4.367188 4.519531 C 4.539062 4.519531 4.753906 4.59375 4.917969 4.554688 C 5.089844 4.515625 4.828125 4.363281 4.753906 4.355469 L 4.753906 4.347656 C 4.972656 4.347656 5.214844 4.453125 5.421875 4.371094 L 5.433594 4.378906 L 5.195312 4.613281 L 5.039062 4.855469 L 4.898438 5.027344 L 4.882812 4.921875 C 4.785156 4.921875 4.746094 4.992188 4.679688 5.050781 C 4.578125 5.144531 4.40625 5.269531 4.257812 5.242188 C 4.375 5.167969 4.496094 5.101562 4.613281 5.039062 C 4.683594 5.003906 4.75 4.964844 4.753906 4.886719 C 4.652344 4.871094 4.546875 4.859375 4.449219 4.898438 C 4.300781 4.957031 4.15625 5.164062 4.121094 5.308594 C 4.324219 5.367188 4.75 5.359375 4.863281 5.15625 L 4.882812 5.179688 L 4.964844 5.070312 C 4.96875 5.164062 4.960938 5.261719 4.921875 5.351562 C 4.886719 5.441406 4.820312 5.519531 4.789062 5.609375 C 4.738281 5.746094 4.746094 5.972656 4.789062 6.109375 C 4.894531 6.082031 4.859375 6.003906 4.847656 5.921875 C 4.832031 5.8125 4.832031 5.585938 4.964844 5.53125 C 5.011719 5.515625 5.015625 5.601562 5.019531 5.628906 C 5.023438 5.738281 5.007812 5.855469 5.019531 5.964844 C 5.027344 6.011719 5.070312 6.035156 5.117188 6.003906 C 5.171875 5.964844 5.152344 5.765625 5.144531 5.707031 C 5.140625 5.660156 5.132812 5.609375 5.105469 5.566406 C 5.082031 5.539062 5.042969 5.519531 5.027344 5.480469 C 5.003906 5.433594 5.023438 5.371094 5.027344 5.320312 C 5.035156 5.214844 5.003906 5.09375 5.03125 4.992188 C 5.042969 4.941406 5.097656 4.90625 5.125 4.863281 C 5.144531 4.820312 5.144531 4.773438 5.171875 4.734375 C 5.21875 4.667969 5.296875 4.625 5.359375 4.574219 C 5.457031 4.496094 5.542969 4.390625 5.671875 4.351562 C 5.796875 4.316406 5.9375 4.34375 6.066406 4.335938 C 6.167969 4.328125 6.269531 4.296875 6.367188 4.277344 L 6.367188 4.285156 C 6.210938 4.328125 6.046875 4.5625 6.011719 4.707031 C 6.28125 4.78125 6.578125 4.734375 6.800781 4.585938 C 6.742188 4.710938 6.703125 4.871094 6.605469 4.972656 C 6.601562 4.929688 6.574219 4.886719 6.519531 4.914062 C 6.464844 4.945312 6.429688 5.011719 6.386719 5.050781 C 6.269531 5.164062 6.117188 5.265625 5.945312 5.265625 L 5.945312 5.257812 C 6.074219 5.203125 6.191406 5.109375 6.3125 5.039062 C 6.363281 5.011719 6.433594 4.976562 6.453125 4.921875 C 6.472656 4.867188 6.398438 4.863281 6.359375 4.863281 C 6.261719 4.859375 6.167969 4.867188 6.082031 4.925781 C 5.980469 4.996094 5.949219 5.117188 5.855469 5.1875 C 5.855469 5.113281 5.847656 5.03125 5.855469 4.957031 C 5.878906 4.824219 5.925781 4.683594 5.863281 4.550781 C 5.828125 4.476562 5.757812 4.433594 5.671875 4.417969 C 5.640625 4.414062 5.589844 4.40625 5.578125 4.441406 C 5.554688 4.492188 5.636719 4.558594 5.664062 4.59375 C 5.730469 4.691406 5.820312 4.859375 5.761719 4.972656 L 5.628906 4.621094 C 5.617188 4.585938 5.59375 4.519531 5.542969 4.523438 C 5.480469 4.527344 5.476562 4.675781 5.476562 4.714844 C 5.480469 4.863281 5.65625 5.050781 5.800781 5.101562 C 5.765625 5.273438 5.65625 5.398438 5.609375 5.558594 C 5.570312 5.710938 5.609375 5.878906 5.617188 6.03125 C 5.644531 6.023438 5.679688 6.015625 5.691406 5.988281 C 5.710938 5.949219 5.683594 5.890625 5.679688 5.851562 C 5.667969 5.757812 5.664062 5.667969 5.703125 5.578125 C 5.71875 5.542969 5.761719 5.453125 5.808594 5.449219 C 5.851562 5.449219 5.847656 5.535156 5.851562 5.558594 C 5.863281 5.65625 5.839844 5.75 5.847656 5.84375 C 5.847656 5.882812 5.855469 5.9375 5.910156 5.9375 C 5.96875 5.933594 5.96875 5.878906 5.972656 5.835938 C 5.980469 5.742188 6 5.582031 5.945312 5.5 C 5.925781 5.464844 5.832031 5.414062 5.859375 5.367188 C 5.882812 5.332031 6.050781 5.355469 6.09375 5.351562 C 6.285156 5.347656 6.585938 5.304688 6.605469 5.078125 L 6.625 5.078125 C 6.625 5.128906 6.664062 5.203125 6.648438 5.253906 C 6.625 5.347656 6.503906 5.394531 6.457031 5.472656 C 6.390625 5.574219 6.40625 5.707031 6.40625 5.816406 C 6.550781 5.777344 6.5 5.5625 6.558594 5.457031 C 6.578125 5.417969 6.648438 5.371094 6.675781 5.429688 C 6.691406 5.46875 6.679688 5.523438 6.679688 5.558594 L 6.679688 5.679688 C 6.804688 5.613281 6.6875 5.351562 6.699219 5.242188 C 6.710938 5.140625 6.703125 5.027344 6.734375 4.929688 C 6.757812 4.851562 6.820312 4.785156 6.84375 4.707031 C 6.898438 4.542969 6.917969 4.417969 7.046875 4.285156 C 7.039062 4.367188 7.035156 4.449219 7.070312 4.527344 C 7.136719 4.679688 7.371094 4.824219 7.542969 4.863281 C 7.558594 4.816406 7.550781 4.769531 7.554688 4.726562 C 7.585938 4.523438 7.5625 4.128906 7.277344 4.105469 L 7.277344 4.097656 C 7.417969 4.066406 7.472656 4.1875 7.554688 4.269531 C 7.589844 4.304688 7.640625 4.328125 7.664062 4.371094 C 7.71875 4.476562 7.726562 4.636719 7.671875 4.742188 C 7.601562 4.878906 7.5 4.964844 7.46875 5.121094 C 7.449219 5.230469 7.339844 5.503906 7.535156 5.507812 L 7.523438 5.207031 L 7.625 5.363281 L 7.652344 5.363281 C 7.671875 5.3125 7.683594 5.253906 7.664062 5.207031 C 7.644531 5.164062 7.597656 5.128906 7.605469 5.078125 C 7.617188 4.996094 7.691406 4.929688 7.722656 4.855469 C 7.777344 4.726562 7.769531 4.527344 7.726562 4.398438 C 7.761719 4.40625 7.832031 4.421875 7.855469 4.453125 C 7.894531 4.507812 7.855469 4.679688 7.847656 4.742188 C 7.816406 5.011719 7.800781 5.296875 7.800781 5.566406 L 8.214844 5.566406 L 8.175781 4.941406 L 8.148438 4.441406 L 8.25 4.414062 C 8.25 4.554688 8.210938 4.6875 8.253906 4.828125 C 8.28125 4.914062 8.375 4.996094 8.382812 5.085938 C 8.386719 5.132812 8.335938 5.171875 8.320312 5.214844 C 8.296875 5.265625 8.3125 5.3125 8.332031 5.363281 L 8.359375 5.363281 L 8.433594 5.207031 L 8.453125 5.207031 C 8.476562 5.304688 8.457031 5.410156 8.441406 5.507812 C 8.648438 5.507812 8.539062 5.222656 8.511719 5.101562 C 8.460938 4.867188 8.148438 4.65625 8.316406 4.390625 C 8.355469 4.332031 8.445312 4.285156 8.5 4.234375 C 8.410156 4.445312 8.433594 4.640625 8.433594 4.863281 C 8.621094 4.835938 8.890625 4.652344 8.933594 4.476562 C 8.941406 4.429688 8.964844 4.269531 8.910156 4.242188 C 8.859375 4.21875 8.804688 4.296875 8.785156 4.328125 C 8.695312 4.457031 8.59375 4.589844 8.527344 4.726562 L 8.515625 4.726562 C 8.515625 4.558594 8.625 4.414062 8.746094 4.304688 C 8.773438 4.277344 8.839844 4.199219 8.882812 4.207031 C 8.914062 4.210938 8.941406 4.246094 8.957031 4.269531 C 9.011719 4.328125 9.066406 4.390625 9.105469 4.457031 C 9.152344 4.539062 9.152344 4.636719 9.179688 4.726562 C 9.203125 4.800781 9.261719 4.863281 9.289062 4.941406 C 9.320312 5.042969 9.316406 5.167969 9.324219 5.273438 C 9.332031 5.382812 9.269531 5.484375 9.28125 5.585938 C 9.28125 5.621094 9.308594 5.65625 9.324219 5.6875 L 9.332031 5.6875 C 9.332031 5.648438 9.335938 5.609375 9.339844 5.566406 C 9.34375 5.539062 9.34375 5.511719 9.34375 5.480469 C 9.34375 5.40625 9.414062 5.371094 9.457031 5.449219 C 9.515625 5.546875 9.488281 5.671875 9.535156 5.773438 C 9.550781 5.804688 9.585938 5.8125 9.617188 5.816406 C 9.617188 5.707031 9.628906 5.582031 9.570312 5.480469 C 9.519531 5.398438 9.398438 5.347656 9.371094 5.253906 C 9.363281 5.21875 9.382812 5.179688 9.386719 5.144531 L 9.398438 5.144531 C 9.496094 5.421875 9.921875 5.3125 10.140625 5.363281 C 10.121094 5.425781 10.066406 5.449219 10.035156 5.507812 C 9.988281 5.585938 9.996094 5.714844 10.007812 5.800781 C 10.015625 5.84375 10.019531 5.988281 10.109375 5.929688 C 10.140625 5.910156 10.132812 5.855469 10.132812 5.824219 C 10.132812 5.734375 10.128906 5.640625 10.132812 5.550781 C 10.132812 5.523438 10.140625 5.4375 10.1875 5.457031 C 10.324219 5.507812 10.316406 5.734375 10.300781 5.84375 C 10.289062 5.929688 10.261719 5.992188 10.363281 6.03125 C 10.410156 5.878906 10.414062 5.648438 10.351562 5.5 C 10.304688 5.390625 10.175781 5.257812 10.191406 5.128906 C 10.199219 5.082031 10.289062 5.035156 10.328125 5.003906 C 10.417969 4.925781 10.511719 4.820312 10.507812 4.699219 C 10.507812 4.65625 10.488281 4.476562 10.410156 4.53125 C 10.277344 4.621094 10.324219 4.871094 10.207031 4.972656 C 10.207031 4.847656 10.230469 4.742188 10.300781 4.628906 C 10.328125 4.585938 10.421875 4.503906 10.410156 4.449219 C 10.398438 4.40625 10.34375 4.414062 10.304688 4.421875 C 10.214844 4.4375 10.144531 4.488281 10.113281 4.570312 C 10.0625 4.691406 10.105469 4.808594 10.121094 4.929688 C 10.132812 5.019531 10.121094 5.109375 10.121094 5.199219 L 10.113281 5.199219 C 10.050781 5.039062 9.898438 4.871094 9.710938 4.863281 C 9.667969 4.859375 9.550781 4.847656 9.53125 4.890625 C 9.511719 4.941406 9.589844 4.992188 9.628906 5.015625 C 9.757812 5.097656 9.898438 5.195312 10.039062 5.257812 L 10.039062 5.265625 C 9.882812 5.265625 9.738281 5.179688 9.628906 5.078125 C 9.546875 5.003906 9.496094 4.890625 9.371094 4.914062 L 9.234375 4.636719 L 9.460938 4.71875 L 9.96875 4.714844 C 9.957031 4.5625 9.753906 4.320312 9.601562 4.277344 L 9.601562 4.269531 C 9.71875 4.28125 9.835938 4.328125 9.957031 4.335938 C 10.105469 4.347656 10.257812 4.3125 10.398438 4.371094 C 10.503906 4.414062 10.574219 4.511719 10.664062 4.578125 C 10.730469 4.625 10.8125 4.671875 10.855469 4.742188 C 10.875 4.777344 10.871094 4.816406 10.890625 4.855469 C 10.910156 4.890625 10.949219 4.921875 10.957031 4.964844 C 10.972656 5.078125 10.957031 5.203125 10.957031 5.320312 C 10.957031 5.367188 10.976562 5.425781 10.960938 5.472656 C 10.945312 5.515625 10.898438 5.539062 10.871094 5.578125 C 10.84375 5.617188 10.84375 5.667969 10.839844 5.714844 C 10.832031 5.785156 10.84375 5.851562 10.847656 5.921875 C 10.847656 5.949219 10.839844 5.988281 10.871094 6.007812 C 10.914062 6.039062 10.960938 6.011719 10.964844 5.964844 C 10.980469 5.855469 10.964844 5.738281 10.96875 5.628906 C 10.96875 5.601562 10.972656 5.511719 11.023438 5.53125 C 11.152344 5.585938 11.152344 5.816406 11.136719 5.921875 C 11.125 6.003906 11.085938 6.082031 11.195312 6.109375 C 11.242188 5.972656 11.242188 5.730469 11.191406 5.59375 C 11.15625 5.5 11.085938 5.421875 11.050781 5.328125 C 11.011719 5.210938 11.027344 5.089844 10.984375 4.972656 C 11.054688 5.050781 11.097656 5.164062 11.179688 5.226562 C 11.335938 5.351562 11.675781 5.363281 11.867188 5.308594 C 11.816406 5.136719 11.652344 4.910156 11.453125 4.878906 C 11.40625 4.871094 11.277344 4.851562 11.242188 4.894531 C 11.210938 4.933594 11.289062 4.988281 11.316406 5.007812 C 11.433594 5.082031 11.59375 5.191406 11.730469 5.230469 L 11.730469 5.242188 C 11.484375 5.273438 11.355469 5.042969 11.1875 4.9375 C 11.132812 4.902344 11.097656 4.933594 11.097656 4.984375 C 10.960938 4.886719 10.921875 4.714844 10.808594 4.59375 C 10.742188 4.523438 10.625 4.464844 10.589844 4.371094 C 10.804688 4.4375 11.015625 4.351562 11.234375 4.347656 L 11.234375 4.355469 C 11.160156 4.363281 10.902344 4.511719 11.058594 4.554688 C 11.222656 4.597656 11.449219 4.519531 11.621094 4.519531 L 11.621094 4.527344 C 11.496094 4.582031 11.375 4.625 11.234375 4.609375 C 11.167969 4.605469 10.996094 4.546875 10.941406 4.585938 C 10.894531 4.617188 10.9375 4.667969 10.960938 4.699219 C 11.015625 4.769531 11.101562 4.820312 11.195312 4.816406 C 11.363281 4.8125 11.523438 4.703125 11.648438 4.609375 C 11.675781 4.589844 11.773438 4.53125 11.761719 4.492188 C 11.753906 4.457031 11.6875 4.441406 11.65625 4.425781 C 11.550781 4.382812 11.441406 4.351562 11.324219 4.335938 L 11.324219 4.328125 L 11.710938 4.242188 L 11.710938 4.234375 C 11.601562 4.207031 11.476562 4.191406 11.363281 4.210938 C 11.300781 4.222656 11.242188 4.253906 11.179688 4.257812 C 10.894531 4.285156 10.59375 4.300781 10.304688 4.304688 C 9.960938 4.308594 9.636719 4.160156 9.304688 4.085938 C 9.195312 4.0625 9.085938 4.066406 8.976562 4.0625 C 8.875 4.054688 8.773438 4.035156 8.671875 4.035156 C 8.496094 4.039062 8.363281 4.210938 8.1875 4.234375 C 8.1875 4.039062 8.175781 3.84375 8.175781 3.648438 C 8.175781 3.503906 8.164062 3.390625 8.265625 3.269531 C 8.375 3.140625 8.5 3.121094 8.664062 3.101562 C 8.742188 3.09375 8.847656 3.085938 8.910156 3.136719 C 8.964844 3.179688 8.996094 3.253906 9.023438 3.3125 C 9.09375 3.46875 9.203125 3.691406 9.195312 3.863281 C 9.296875 3.855469 9.269531 3.800781 9.269531 3.726562 C 9.59375 3.914062 9.847656 3.605469 10.058594 3.398438 L 10.058594 3.390625 C 9.910156 3.296875 9.605469 3.242188 9.445312 3.324219 C 9.398438 3.347656 9.230469 3.453125 9.269531 3.515625 C 9.296875 3.558594 9.394531 3.539062 9.433594 3.53125 C 9.585938 3.496094 9.738281 3.453125 9.894531 3.433594 C 9.738281 3.613281 9.4375 3.570312 9.222656 3.570312 L 8.984375 3.105469 C 9.101562 3.132812 9.230469 3.128906 9.351562 3.152344 C 9.566406 3.1875 9.785156 3.246094 9.996094 3.308594 C 10.082031 3.335938 10.179688 3.339844 10.261719 3.378906 C 10.351562 3.417969 10.441406 3.53125 10.488281 3.613281 C 10.433594 3.582031 10.382812 3.546875 10.316406 3.53125 C 10.0625 3.472656 9.902344 3.691406 9.800781 3.871094 C 9.761719 3.9375 9.734375 4.003906 9.703125 4.070312 C 9.695312 4.089844 9.667969 4.128906 9.683594 4.152344 C 9.710938 4.191406 9.875 4.160156 9.921875 4.15625 C 10.1875 4.140625 10.421875 4.035156 10.460938 3.761719 C 10.371094 3.730469 10.296875 3.777344 10.222656 3.824219 C 10.089844 3.90625 9.957031 3.984375 9.820312 4.0625 C 9.890625 3.902344 10.070312 3.8125 10.234375 3.753906 C 10.328125 3.71875 10.453125 3.726562 10.488281 3.625 L 10.5 3.625 L 10.664062 3.976562 L 10.683594 3.976562 C 10.726562 3.882812 10.613281 3.710938 10.5625 3.625 L 10.703125 3.613281 C 10.625 3.992188 11.0625 4.054688 11.363281 4.035156 C 11.421875 4.03125 11.574219 4.050781 11.621094 4.011719 C 11.644531 3.992188 11.621094 3.960938 11.613281 3.941406 C 11.578125 3.878906 11.535156 3.816406 11.492188 3.761719 C 11.320312 3.539062 11.140625 3.46875 10.855469 3.527344 C 10.863281 3.601562 10.910156 3.640625 10.976562 3.675781 C 11.128906 3.757812 11.304688 3.875 11.472656 3.925781 L 11.472656 3.933594 C 11.28125 3.945312 11.105469 3.851562 10.96875 3.734375 C 10.910156 3.6875 10.863281 3.617188 10.800781 3.582031 C 10.722656 3.539062 10.640625 3.578125 10.5625 3.550781 C 10.511719 3.53125 10.464844 3.449219 10.433594 3.40625 C 10.65625 3.433594 10.863281 3.445312 11.085938 3.425781 C 11.21875 3.414062 11.324219 3.410156 11.445312 3.347656 C 11.386719 3.28125 11.285156 3.339844 11.214844 3.363281 C 11.058594 3.410156 10.855469 3.414062 10.691406 3.390625 C 10.574219 3.375 10.46875 3.324219 10.351562 3.300781 C 9.804688 3.1875 9.25 3.042969 8.691406 2.980469 C 8.578125 2.96875 8.464844 3.007812 8.371094 3.066406 C 8.308594 3.101562 8.21875 3.175781 8.140625 3.15625 C 8.097656 3.144531 8.105469 3.105469 8.101562 3.074219 C 8.09375 2.996094 8.09375 2.917969 8.09375 2.839844 C 8.09375 2.742188 8.058594 2.617188 8.089844 2.523438 C 8.101562 2.480469 8.164062 2.464844 8.195312 2.441406 C 8.300781 2.359375 8.347656 2.261719 8.5 2.253906 C 8.605469 2.25 8.785156 2.257812 8.875 2.320312 C 8.984375 2.398438 9.046875 2.609375 9.097656 2.726562 C 9.128906 2.804688 9.140625 2.964844 9.222656 3.003906 C 9.277344 2.886719 9.160156 2.734375 9.113281 2.625 C 9.242188 2.625 9.246094 2.78125 9.351562 2.847656 C 9.511719 2.945312 9.75 2.996094 9.9375 3.003906 C 9.9375 2.835938 9.832031 2.570312 9.671875 2.484375 C 9.632812 2.464844 9.425781 2.382812 9.394531 2.445312 C 9.371094 2.496094 9.4375 2.558594 9.472656 2.589844 L 9.8125 2.898438 C 9.648438 2.867188 9.523438 2.742188 9.433594 2.617188 C 9.398438 2.570312 9.371094 2.472656 9.3125 2.449219 C 9.234375 2.410156 9.21875 2.523438 9.214844 2.574219 C 9.101562 2.507812 9.058594 2.433594 8.980469 2.339844 C 8.945312 2.300781 8.898438 2.269531 8.867188 2.230469 C 9.117188 2.230469 9.335938 2.210938 9.582031 2.265625 C 9.652344 2.277344 9.738281 2.273438 9.800781 2.3125 C 9.882812 2.363281 9.914062 2.460938 9.953125 2.539062 L 10.152344 2.933594 C 10.179688 2.992188 10.179688 3.0625 10.21875 3.113281 C 10.277344 3.191406 10.402344 3.117188 10.480469 3.160156 C 10.558594 3.203125 10.578125 3.308594 10.671875 3.347656 C 10.96875 3.472656 11.273438 3.214844 11.519531 3.105469 C 11.5 3.042969 11.410156 3.003906 11.351562 2.972656 C 11.195312 2.886719 11.042969 2.808594 10.855469 2.832031 L 10.855469 2.824219 L 11.242188 2.546875 C 11.199219 2.496094 11.125 2.472656 11.058594 2.449219 C 10.914062 2.398438 10.738281 2.332031 10.582031 2.382812 C 10.503906 2.40625 10.4375 2.449219 10.378906 2.503906 C 10.359375 2.523438 10.320312 2.558594 10.339844 2.589844 C 10.375 2.640625 10.472656 2.621094 10.527344 2.617188 C 10.703125 2.601562 10.882812 2.566406 11.058594 2.566406 L 11.058594 2.574219 C 10.898438 2.636719 10.773438 2.691406 10.589844 2.683594 C 10.507812 2.679688 10.34375 2.613281 10.269531 2.652344 C 10.195312 2.695312 10.277344 2.785156 10.316406 2.824219 C 10.410156 2.917969 10.535156 2.929688 10.664062 2.910156 L 10.664062 2.917969 L 10.582031 2.976562 L 10.582031 2.984375 C 10.648438 3.054688 10.714844 3.046875 10.800781 3.058594 C 10.976562 3.078125 11.160156 3.082031 11.335938 3.089844 L 11.335938 3.097656 C 11.261719 3.117188 11.199219 3.148438 11.125 3.15625 C 10.925781 3.175781 10.757812 3.09375 10.574219 3.050781 C 10.488281 3.03125 10.414062 3.105469 10.335938 3.042969 C 10.222656 2.953125 10.195312 2.746094 10.132812 2.625 C 10.089844 2.535156 10.003906 2.472656 9.957031 2.382812 L 10.589844 2.355469 L 10.902344 2.296875 L 10.902344 2.28125 L 10.472656 2.261719 L 10.472656 2.253906 C 10.65625 2.238281 10.835938 2.089844 10.984375 1.996094 C 10.953125 1.9375 10.882812 1.90625 10.820312 1.878906 C 10.679688 1.8125 10.519531 1.734375 10.363281 1.785156 C 10.308594 1.800781 10.140625 1.867188 10.148438 1.933594 C 10.15625 1.988281 10.265625 1.988281 10.304688 1.988281 L 10.820312 1.988281 L 10.820312 1.996094 C 10.585938 2.089844 10.390625 2.066406 10.152344 1.996094 C 10.097656 1.980469 10.054688 1.996094 10.039062 2.046875 C 9.925781 2.015625 9.757812 2.039062 9.65625 1.980469 C 9.609375 1.953125 9.578125 1.882812 9.542969 1.839844 C 9.523438 1.8125 9.433594 1.722656 9.46875 1.683594 C 9.53125 1.617188 9.75 1.734375 9.785156 1.636719 C 9.875 1.660156 9.957031 1.628906 10.050781 1.609375 C 10.167969 1.582031 10.292969 1.5625 10.40625 1.523438 C 10.308594 1.652344 10.097656 1.679688 9.9375 1.6875 C 9.882812 1.6875 9.742188 1.644531 9.710938 1.714844 C 9.695312 1.746094 9.734375 1.785156 9.757812 1.808594 C 9.828125 1.878906 9.929688 1.90625 10.03125 1.890625 C 10.199219 1.867188 10.339844 1.730469 10.445312 1.617188 C 10.488281 1.574219 10.539062 1.535156 10.5625 1.480469 C 10.417969 1.410156 10.183594 1.359375 10.023438 1.398438 C 9.898438 1.429688 9.859375 1.542969 9.753906 1.59375 C 9.714844 1.609375 9.660156 1.597656 9.617188 1.601562 C 9.5625 1.601562 9.5 1.621094 9.445312 1.605469 C 9.355469 1.578125 9.214844 1.429688 9.195312 1.34375 L 9.453125 1.359375 L 10.167969 1.34375 C 10.105469 1.261719 9.867188 1.308594 9.773438 1.320312 C 9.554688 1.347656 9.328125 1.3125 9.113281 1.257812 C 9.058594 1.242188 8.949219 1.242188 8.90625 1.207031 C 8.875 1.179688 8.910156 1.121094 8.921875 1.09375 C 8.953125 1.007812 9.054688 0.933594 9.121094 0.871094 C 9.144531 0.847656 9.199219 0.808594 9.179688 0.777344 C 9.160156 0.742188 9.121094 0.757812 9.09375 0.773438 C 9.027344 0.8125 8.96875 0.863281 8.910156 0.914062 C 8.914062 0.859375 8.929688 0.800781 8.914062 0.75 C 8.832031 0.472656 8.378906 0.421875 8.121094 0.414062 L 8.203125 0.679688 L 8.195312 0.679688 C 8.167969 0.625 8.125 0.570312 8.058594 0.558594 C 8.089844 0.71875 8.097656 0.953125 8.039062 1.109375 L 8.019531 1.109375 C 7.949219 0.933594 7.960938 0.753906 7.984375 0.566406 C 7.765625 0.664062 7.78125 1.023438 7.863281 1.195312 C 7.910156 1.292969 7.988281 1.308594 7.992188 1.429688 C 7.777344 1.226562 7.558594 1.195312 7.269531 1.195312 C 7.261719 1.117188 7.207031 1.050781 7.15625 0.988281 C 7.234375 0.96875 7.277344 0.839844 7.324219 0.78125 C 7.433594 0.65625 7.550781 0.558594 7.71875 0.515625 C 7.628906 0.632812 7.484375 0.730469 7.367188 0.824219 C 7.328125 0.855469 7.246094 0.917969 7.253906 0.980469 C 7.261719 1.015625 7.3125 1.015625 7.339844 1.011719 C 7.421875 1.003906 7.511719 0.988281 7.582031 0.945312 C 7.746094 0.847656 7.839844 0.589844 7.863281 0.414062 C 7.542969 0.417969 7.066406 0.5 7.066406 0.871094 M 8.269531 0.515625 C 8.445312 0.558594 8.5625 0.65625 8.671875 0.792969 C 8.722656 0.855469 8.761719 0.984375 8.855469 0.988281 C 8.832031 1.039062 8.796875 1.078125 8.769531 1.128906 C 8.757812 1.148438 8.757812 1.179688 8.734375 1.191406 C 8.644531 1.234375 8.5 1.183594 8.398438 1.214844 C 8.257812 1.257812 8.152344 1.339844 8.039062 1.421875 C 8.042969 1.378906 8.042969 1.3125 8.066406 1.277344 C 8.113281 1.203125 8.199219 1.167969 8.238281 1.085938 C 8.289062 0.976562 8.253906 0.839844 8.222656 0.730469 L 8.230469 0.730469 C 8.347656 0.917969 8.488281 1.023438 8.726562 1.007812 C 8.726562 0.855469 8.488281 0.722656 8.378906 0.628906 C 8.339844 0.597656 8.28125 0.5625 8.269531 0.515625 M 8.214844 0.6875 L 8.203125 0.695312 L 8.214844 0.6875 M 5.910156 1.144531 C 6.148438 1.199219 6.378906 1.332031 6.632812 1.261719 C 6.742188 1.230469 6.8125 1.152344 6.84375 1.050781 C 6.855469 1.011719 6.871094 0.949219 6.816406 0.929688 C 6.75 0.90625 6.640625 1.007812 6.578125 1.035156 C 6.425781 1.105469 6.25 1.152344 6.082031 1.101562 C 6.234375 1.039062 6.410156 1.015625 6.570312 0.980469 C 6.617188 0.96875 6.714844 0.945312 6.722656 0.886719 C 6.726562 0.855469 6.6875 0.84375 6.664062 0.832031 C 6.597656 0.804688 6.515625 0.78125 6.441406 0.785156 C 6.277344 0.785156 6.132812 0.90625 6.019531 1.007812 C 5.976562 1.046875 5.925781 1.085938 5.910156 1.144531 M 9.25 0.871094 C 9.289062 0.957031 9.382812 0.972656 9.472656 0.992188 C 9.613281 1.019531 9.769531 1.046875 9.902344 1.101562 C 9.738281 1.152344 9.558594 1.105469 9.40625 1.035156 C 9.339844 1.003906 9.226562 0.898438 9.152344 0.9375 C 9.109375 0.957031 9.132812 1.015625 9.140625 1.050781 C 9.171875 1.152344 9.242188 1.230469 9.351562 1.261719 C 9.601562 1.335938 9.84375 1.195312 10.078125 1.144531 C 10.050781 1.066406 9.976562 1.015625 9.910156 0.964844 C 9.710938 0.800781 9.492188 0.71875 9.25 0.871094 M 9.105469 1.453125 C 9.019531 1.464844 8.945312 1.488281 8.902344 1.558594 C 8.964844 1.535156 9.054688 1.496094 9.121094 1.511719 C 9.199219 1.53125 9.261719 1.628906 9.304688 1.6875 C 9.417969 1.832031 9.539062 2.085938 9.726562 2.152344 C 9.773438 2.0625 9.945312 2.117188 10.03125 2.117188 L 10.03125 2.058594 L 10.113281 2.160156 L 10.261719 2.261719 L 10.261719 2.273438 C 10.164062 2.273438 10.066406 2.292969 9.96875 2.273438 C 9.78125 2.242188 9.613281 2.152344 9.425781 2.121094 C 9.222656 2.085938 8.988281 2.089844 8.78125 2.101562 C 8.664062 2.105469 8.523438 2.109375 8.414062 2.164062 C 8.308594 2.214844 8.222656 2.328125 8.09375 2.332031 C 8.070312 2.21875 8.050781 2.039062 8.085938 1.925781 C 8.261719 1.972656 8.546875 1.964844 8.691406 1.847656 C 8.765625 1.789062 8.804688 1.699219 8.835938 1.617188 C 8.742188 1.585938 8.671875 1.632812 8.589844 1.675781 C 8.472656 1.738281 8.347656 1.800781 8.222656 1.851562 C 8.289062 1.707031 8.46875 1.632812 8.617188 1.59375 C 8.679688 1.578125 8.828125 1.582031 8.851562 1.515625 C 8.867188 1.476562 8.8125 1.445312 8.78125 1.429688 C 8.695312 1.378906 8.601562 1.363281 8.507812 1.40625 C 8.292969 1.496094 8.195312 1.730469 8.085938 1.910156 C 8.0625 1.859375 8.074219 1.785156 8.074219 1.730469 C 8.074219 1.660156 8.054688 1.558594 8.089844 1.496094 C 8.1875 1.308594 8.523438 1.273438 8.71875 1.273438 C 8.8125 1.273438 8.910156 1.289062 9.003906 1.308594 C 9.03125 1.3125 9.085938 1.316406 9.105469 1.339844 C 9.125 1.367188 9.109375 1.421875 9.105469 1.453125 M 7.753906 1.839844 C 7.613281 1.804688 7.472656 1.707031 7.339844 1.640625 C 7.300781 1.621094 7.21875 1.578125 7.171875 1.609375 C 7.144531 1.628906 7.160156 1.664062 7.171875 1.6875 C 7.199219 1.75 7.246094 1.816406 7.304688 1.863281 C 7.441406 1.960938 7.738281 1.980469 7.902344 1.925781 C 7.84375 1.742188 7.671875 1.480469 7.480469 1.402344 C 7.382812 1.363281 7.285156 1.378906 7.195312 1.425781 C 7.164062 1.445312 7.113281 1.472656 7.125 1.515625 C 7.148438 1.582031 7.285156 1.574219 7.339844 1.589844 C 7.496094 1.632812 7.675781 1.699219 7.753906 1.839844 M 5.421875 1.480469 C 5.445312 1.53125 5.488281 1.566406 5.527344 1.609375 C 5.632812 1.722656 5.785156 1.871094 5.957031 1.890625 C 6.0625 1.902344 6.152344 1.878906 6.226562 1.804688 C 6.25 1.785156 6.289062 1.746094 6.273438 1.714844 C 6.242188 1.644531 6.105469 1.6875 6.046875 1.6875 C 5.890625 1.679688 5.679688 1.652344 5.578125 1.523438 C 5.726562 1.574219 5.902344 1.605469 6.054688 1.636719 C 6.097656 1.644531 6.191406 1.664062 6.210938 1.617188 C 6.230469 1.558594 6.105469 1.472656 6.066406 1.445312 C 5.898438 1.332031 5.59375 1.394531 5.421875 1.480469 M 8.699219 2.003906 C 8.886719 2.054688 9.222656 2.089844 9.269531 1.839844 C 9.121094 1.808594 8.960938 1.921875 8.820312 1.953125 C 8.886719 1.863281 9.019531 1.828125 9.132812 1.8125 C 9.175781 1.804688 9.273438 1.824219 9.296875 1.78125 C 9.3125 1.746094 9.273438 1.71875 9.25 1.703125 C 9.191406 1.664062 9.117188 1.648438 9.050781 1.667969 C 8.90625 1.707031 8.753906 1.882812 8.699219 2.003906 M 7.765625 1.839844 L 7.753906 1.851562 L 7.765625 1.839844 M 8.203125 2.976562 C 8.277344 2.992188 8.351562 2.980469 8.425781 2.96875 C 8.683594 2.933594 8.875 2.835938 8.910156 2.574219 C 8.816406 2.550781 8.746094 2.605469 8.671875 2.660156 C 8.5625 2.738281 8.453125 2.820312 8.332031 2.882812 C 8.421875 2.742188 8.535156 2.65625 8.691406 2.585938 C 8.75 2.558594 8.898438 2.539062 8.917969 2.476562 C 8.933594 2.429688 8.875 2.410156 8.835938 2.394531 C 8.75 2.355469 8.636719 2.351562 8.554688 2.402344 C 8.359375 2.515625 8.261719 2.78125 8.203125 2.976562 M 6.046875 3.003906 C 6.25 2.996094 6.554688 2.941406 6.699219 2.796875 C 6.769531 2.726562 6.789062 2.625 6.765625 2.53125 C 6.757812 2.5 6.746094 2.445312 6.707031 2.441406 C 6.628906 2.433594 6.585938 2.566406 6.550781 2.617188 C 6.460938 2.742188 6.335938 2.878906 6.167969 2.898438 L 6.503906 2.59375 C 6.539062 2.558594 6.609375 2.5 6.582031 2.445312 C 6.550781 2.382812 6.355469 2.464844 6.3125 2.484375 C 6.152344 2.570312 6.050781 2.835938 6.046875 3.003906 M 3.3125 9.792969 C 3.285156 9.621094 3.179688 9.445312 3.125 9.277344 C 3.058594 9.070312 3.039062 8.828125 2.917969 8.640625 C 2.828125 8.5 2.632812 8.453125 2.5625 8.296875 C 2.519531 8.191406 2.527344 8.078125 2.511719 7.96875 C 2.480469 7.769531 2.4375 7.574219 2.375 7.382812 C 2.207031 6.875 1.917969 6.394531 1.835938 5.859375 C 1.75 5.285156 1.929688 4.632812 2.121094 4.085938 C 2.285156 3.625 2.507812 3.199219 2.828125 2.8125 C 2.890625 2.738281 2.976562 2.660156 3.011719 2.574219 C 3.027344 2.539062 3.035156 2.472656 2.980469 2.464844 C 2.929688 2.457031 2.878906 2.515625 2.84375 2.542969 C 2.738281 2.632812 2.640625 2.730469 2.539062 2.824219 C 2.105469 3.230469 1.761719 3.75 1.535156 4.285156 C 1.355469 4.703125 1.234375 5.132812 1.160156 5.578125 C 1.109375 5.878906 1.058594 6.183594 1.074219 6.488281 C 1.113281 7.371094 1.457031 8.226562 2.070312 8.898438 C 2.3125 9.164062 2.582031 9.421875 2.898438 9.613281 C 3.019531 9.6875 3.164062 9.773438 3.3125 9.792969 M 12.683594 9.792969 C 12.832031 9.773438 12.972656 9.6875 13.097656 9.613281 C 13.414062 9.421875 13.683594 9.164062 13.925781 8.898438 C 14.539062 8.226562 14.882812 7.371094 14.921875 6.488281 C 14.9375 6.183594 14.890625 5.875 14.835938 5.578125 C 14.753906 5.128906 14.640625 4.679688 14.449219 4.261719 C 14.210938 3.730469 13.878906 3.222656 13.445312 2.8125 C 13.347656 2.722656 13.253906 2.632812 13.152344 2.546875 C 13.117188 2.515625 13.070312 2.460938 13.015625 2.464844 C 12.960938 2.472656 12.964844 2.539062 12.980469 2.574219 C 13.019531 2.660156 13.105469 2.738281 13.167969 2.8125 C 13.480469 3.195312 13.707031 3.613281 13.863281 4.070312 C 14.058594 4.625 14.242188 5.265625 14.160156 5.851562 C 14.085938 6.394531 13.78125 6.890625 13.613281 7.410156 C 13.546875 7.605469 13.507812 7.808594 13.476562 8.011719 C 13.460938 8.109375 13.472656 8.203125 13.433594 8.296875 C 13.363281 8.453125 13.167969 8.5 13.078125 8.640625 C 12.957031 8.828125 12.9375 9.070312 12.871094 9.277344 C 12.816406 9.445312 12.710938 9.621094 12.683594 9.792969 M 7.589844 3.828125 C 7.460938 3.761719 7.339844 3.667969 7.222656 3.585938 C 7.160156 3.542969 7.089844 3.492188 7.011719 3.527344 C 7.066406 3.78125 7.234375 3.882812 7.496094 3.917969 C 7.570312 3.925781 7.644531 3.945312 7.71875 3.925781 C 7.671875 3.730469 7.5625 3.464844 7.378906 3.355469 C 7.289062 3.300781 7.179688 3.300781 7.085938 3.339844 C 7.050781 3.355469 6.996094 3.378906 7.007812 3.425781 C 7.023438 3.488281 7.175781 3.503906 7.230469 3.53125 C 7.382812 3.597656 7.515625 3.683594 7.589844 3.828125 M 8.398438 3.828125 C 8.460938 3.6875 8.601562 3.59375 8.746094 3.53125 C 8.804688 3.503906 8.941406 3.492188 8.972656 3.433594 C 9.027344 3.335938 8.769531 3.308594 8.710938 3.316406 C 8.5 3.347656 8.40625 3.574219 8.335938 3.734375 C 8.320312 3.765625 8.253906 3.898438 8.285156 3.925781 C 8.316406 3.953125 8.414062 3.925781 8.453125 3.921875 C 8.617188 3.898438 8.800781 3.871094 8.894531 3.726562 C 8.921875 3.6875 8.996094 3.570312 8.957031 3.527344 C 8.914062 3.472656 8.800781 3.558594 8.765625 3.582031 L 8.625 3.679688 C 8.550781 3.730469 8.472656 3.78125 8.398438 3.828125 M 9.902344 3.425781 L 9.894531 3.433594 L 9.902344 3.425781 M 8.738281 4.085938 L 8.738281 4.097656 L 8.554688 4.164062 C 8.605469 4.097656 8.652344 4.085938 8.738281 4.085938 M 6.847656 4.398438 L 6.835938 4.398438 C 6.835938 4.359375 6.820312 4.296875 6.765625 4.316406 C 6.703125 4.339844 6.648438 4.425781 6.597656 4.464844 C 6.472656 4.570312 6.328125 4.636719 6.15625 4.636719 L 6.15625 4.628906 C 6.304688 4.558594 6.460938 4.480469 6.597656 4.398438 C 6.613281 4.386719 6.628906 4.375 6.644531 4.363281 C 6.75 4.265625 6.59375 4.253906 6.515625 4.25 C 6.617188 4.207031 6.742188 4.203125 6.847656 4.164062 C 6.871094 4.15625 6.933594 4.125 6.949219 4.160156 C 6.972656 4.210938 6.867188 4.34375 6.847656 4.398438 M 9.542969 4.25 L 9.542969 4.261719 L 9.289062 4.277344 C 9.3125 4.359375 9.386719 4.394531 9.460938 4.433594 C 9.585938 4.496094 9.703125 4.574219 9.828125 4.628906 L 9.828125 4.636719 C 9.664062 4.636719 9.53125 4.578125 9.40625 4.480469 C 9.316406 4.410156 9.265625 4.304688 9.140625 4.320312 C 9.125 4.285156 9.042969 4.191406 9.078125 4.152344 C 9.101562 4.125 9.167969 4.164062 9.195312 4.171875 C 9.308594 4.210938 9.425781 4.238281 9.542969 4.25 M 7.46875 4.714844 C 7.292969 4.625 7.292969 4.316406 7.09375 4.242188 C 7.136719 4.171875 7.222656 4.277344 7.257812 4.3125 C 7.371094 4.421875 7.46875 4.5625 7.46875 4.714844 M 8.507812 4.226562 L 8.5 4.234375 L 8.507812 4.226562 M 9.570312 4.261719 L 9.574219 4.265625 C 9.570312 4.265625 9.566406 4.261719 9.570312 4.261719 M 7.269531 5.378906 C 7.15625 5.253906 7.082031 5.101562 6.988281 4.964844 C 6.960938 4.917969 6.914062 4.84375 6.847656 4.847656 C 6.808594 4.847656 6.804688 4.894531 6.800781 4.921875 C 6.792969 5 6.796875 5.082031 6.824219 5.15625 C 6.894531 5.335938 7.164062 5.476562 7.351562 5.535156 C 7.375 5.460938 7.367188 5.378906 7.367188 5.300781 C 7.367188 5.132812 7.371094 4.933594 7.253906 4.792969 C 7.1875 4.714844 7.070312 4.671875 6.964844 4.683594 C 6.925781 4.6875 6.867188 4.6875 6.859375 4.734375 C 6.84375 4.8125 6.988281 4.882812 7.035156 4.929688 C 7.160156 5.058594 7.269531 5.203125 7.269531 5.378906 M 8.636719 5.535156 C 8.84375 5.46875 9.144531 5.308594 9.179688 5.085938 C 9.1875 5.039062 9.214844 4.875 9.15625 4.851562 C 9.09375 4.824219 9.039062 4.902344 9.011719 4.941406 C 8.917969 5.078125 8.796875 5.226562 8.726562 5.378906 C 8.675781 5.214844 8.863281 5.011719 8.976562 4.90625 C 9.019531 4.863281 9.160156 4.792969 9.125 4.71875 C 9.105469 4.6875 9.054688 4.6875 9.019531 4.683594 C 8.910156 4.671875 8.792969 4.71875 8.726562 4.800781 C 8.605469 4.949219 8.617188 5.144531 8.617188 5.320312 C 8.617188 5.390625 8.605469 5.46875 8.636719 5.535156 M 5.3125 5.472656 C 5.261719 5.378906 5.269531 5.242188 5.257812 5.136719 C 5.253906 5.09375 5.253906 5.023438 5.210938 4.996094 C 5.132812 4.949219 5.078125 5.152344 5.074219 5.199219 C 5.066406 5.328125 5.199219 5.558594 5.320312 5.609375 C 5.414062 5.46875 5.535156 5.269531 5.503906 5.09375 C 5.488281 5.011719 5.429688 4.949219 5.347656 4.917969 C 5.320312 4.902344 5.265625 4.882812 5.242188 4.917969 C 5.210938 4.964844 5.285156 5.058594 5.300781 5.101562 C 5.34375 5.222656 5.363281 5.355469 5.3125 5.472656 M 10.664062 5.609375 C 10.796875 5.550781 10.933594 5.300781 10.902344 5.164062 C 10.894531 5.117188 10.859375 4.988281 10.792969 4.988281 C 10.75 4.992188 10.738281 5.0625 10.730469 5.09375 C 10.710938 5.21875 10.695312 5.347656 10.683594 5.472656 C 10.601562 5.363281 10.644531 5.210938 10.6875 5.09375 C 10.703125 5.050781 10.777344 4.960938 10.738281 4.917969 C 10.714844 4.886719 10.667969 4.902344 10.636719 4.917969 C 10.558594 4.949219 10.5 5.007812 10.484375 5.085938 C 10.449219 5.261719 10.566406 5.46875 10.664062 5.609375 M 4.671875 6.875 L 4.671875 6.882812 L 11.335938 6.902344 C 11.253906 6.824219 11.097656 6.785156 10.996094 6.734375 L 10.179688 6.367188 L 9.214844 5.925781 C 9.050781 5.851562 8.859375 5.730469 8.683594 5.691406 C 8.574219 5.667969 8.453125 5.679688 8.34375 5.679688 L 7.753906 5.679688 C 7.625 5.679688 7.457031 5.644531 7.332031 5.675781 C 7.246094 5.699219 7.164062 5.75 7.085938 5.785156 L 6.5625 6.023438 L 5.40625 6.542969 C 5.160156 6.652344 4.921875 6.777344 4.671875 6.875 M 3.660156 10.722656 C 3.625 10.609375 3.527344 10.5 3.460938 10.394531 C 3.414062 10.316406 3.375 10.214844 3.300781 10.148438 C 3.199219 10.0625 3.066406 10.015625 2.964844 9.929688 C 2.824219 9.8125 2.773438 9.636719 2.632812 9.519531 C 2.511719 9.417969 2.359375 9.359375 2.230469 9.269531 C 2.074219 9.167969 1.941406 9.03125 1.816406 8.898438 C 1.671875 8.742188 1.519531 8.582031 1.40625 8.398438 C 1.222656 8.097656 1.128906 7.75 1.054688 7.410156 C 1.011719 7.210938 1.011719 6.996094 0.960938 6.796875 C 0.8125 6.828125 0.796875 7.089844 0.789062 7.203125 C 0.757812 7.617188 0.738281 8.046875 0.851562 8.449219 C 1.191406 9.660156 2.355469 10.566406 3.660156 10.722656 M 15.035156 6.796875 C 14.980469 7 14.980469 7.21875 14.9375 7.425781 C 14.863281 7.785156 14.753906 8.15625 14.546875 8.46875 C 14.441406 8.625 14.300781 8.765625 14.167969 8.90625 C 14.046875 9.035156 13.917969 9.167969 13.765625 9.269531 C 13.636719 9.359375 13.484375 9.417969 13.363281 9.519531 C 13.222656 9.636719 13.171875 9.8125 13.03125 9.929688 C 12.929688 10.015625 12.796875 10.0625 12.695312 10.148438 C 12.621094 10.214844 12.582031 10.316406 12.535156 10.394531 C 12.46875 10.5 12.371094 10.609375 12.335938 10.722656 C 13.640625 10.566406 14.804688 9.660156 15.144531 8.449219 C 15.253906 8.050781 15.25 7.605469 15.207031 7.195312 C 15.195312 7.082031 15.179688 6.828125 15.035156 6.796875 M 5.625 6.988281 L 5.625 8.082031 L 5.203125 8.082031 L 5.203125 8.289062 L 4.835938 8.289062 L 4.835938 8.492188 L 4.359375 8.492188 C 4.363281 8.765625 4.5625 8.980469 4.84375 9.03125 C 5.160156 9.089844 5.480469 9.023438 5.800781 9.035156 C 6.0625 9.046875 6.355469 9.117188 6.589844 9.226562 C 6.871094 9.359375 7.191406 9.585938 7.320312 9.863281 C 7.46875 10.191406 7.429688 10.695312 7.902344 10.785156 C 7.957031 10.796875 8.019531 10.804688 8.074219 10.800781 C 8.488281 10.757812 8.507812 10.277344 8.632812 10 C 8.746094 9.753906 8.933594 9.53125 9.167969 9.375 C 9.449219 9.183594 9.820312 9.078125 10.167969 9.070312 C 10.496094 9.0625 10.820312 9.128906 11.140625 9.054688 C 11.449219 8.980469 11.644531 8.78125 11.683594 8.484375 L 11.207031 8.503906 L 11.207031 8.304688 L 10.929688 8.304688 L 10.828125 8.285156 L 10.820312 8.117188 L 10.378906 8.125 L 10.378906 6.988281 L 9.765625 6.988281 C 9.8125 7.042969 9.886719 7.066406 9.917969 7.132812 C 9.953125 7.203125 9.9375 7.285156 9.9375 7.359375 L 9.9375 7.804688 C 9.9375 7.867188 9.972656 8.054688 9.925781 8.101562 C 9.894531 8.128906 9.804688 8.117188 9.765625 8.117188 C 9.613281 8.117188 9.464844 8.125 9.316406 8.125 L 9.316406 7.453125 C 9.316406 7.265625 9.304688 7.097656 9.507812 6.996094 L 9.507812 6.988281 L 8.664062 6.988281 L 8.664062 6.996094 C 8.722656 7.035156 8.804688 7.070312 8.839844 7.132812 C 8.882812 7.21875 8.855469 7.351562 8.855469 7.445312 L 8.867188 8.105469 L 8.230469 8.117188 L 8.242188 7.496094 C 8.242188 7.390625 8.21875 7.257812 8.265625 7.160156 C 8.296875 7.082031 8.371094 7.046875 8.425781 6.988281 L 7.617188 6.988281 C 7.664062 7.042969 7.738281 7.074219 7.769531 7.144531 C 7.8125 7.234375 7.792969 7.363281 7.792969 7.460938 L 7.792969 8.132812 L 7.15625 8.117188 C 7.179688 8.050781 7.167969 7.96875 7.167969 7.898438 C 7.167969 7.589844 7.066406 7.183594 7.386719 6.996094 L 7.386719 6.988281 L 6.515625 6.988281 L 6.515625 6.996094 C 6.785156 7.152344 6.71875 7.425781 6.707031 7.683594 C 6.703125 7.828125 6.707031 7.972656 6.707031 8.117188 L 6.09375 8.125 L 6.09375 7.496094 L 6.101562 7.195312 L 6.265625 6.988281 L 5.625 6.988281 M 3.007812 7.753906 C 2.9375 8.28125 3.042969 8.820312 3.25 9.3125 C 3.335938 9.511719 3.433594 9.730469 3.605469 9.878906 C 3.773438 10.019531 3.992188 9.898438 4.175781 9.980469 C 4.226562 10.007812 4.261719 10.054688 4.304688 10.09375 C 4.402344 10.1875 4.507812 10.308594 4.632812 10.371094 C 4.582031 10.128906 4.433594 9.894531 4.328125 9.671875 C 4.28125 9.566406 4.257812 9.429688 4.183594 9.335938 C 4.109375 9.238281 3.957031 9.222656 3.894531 9.113281 C 3.792969 8.941406 3.878906 8.695312 3.746094 8.539062 C 3.636719 8.410156 3.425781 8.414062 3.308594 8.292969 C 3.207031 8.191406 3.148438 8.0625 3.09375 7.933594 C 3.070312 7.882812 3.058594 7.785156 3.007812 7.753906 M 12.96875 7.753906 C 12.902344 7.949219 12.824219 8.195312 12.648438 8.332031 C 12.527344 8.421875 12.335938 8.425781 12.242188 8.546875 C 12.121094 8.703125 12.203125 8.941406 12.101562 9.113281 C 12.039062 9.222656 11.886719 9.238281 11.8125 9.335938 C 11.738281 9.429688 11.714844 9.566406 11.667969 9.671875 C 11.5625 9.898438 11.414062 10.128906 11.363281 10.371094 C 11.546875 10.289062 11.640625 10.0625 11.820312 9.980469 C 12.015625 9.894531 12.230469 10.019531 12.40625 9.863281 C 12.578125 9.710938 12.675781 9.480469 12.757812 9.277344 C 12.964844 8.78125 13.03125 8.28125 12.988281 7.753906 L 12.96875 7.753906 M 11.886719 8.339844 C 11.828125 8.5 11.769531 8.671875 11.667969 8.8125 C 11.546875 8.976562 11.363281 9.128906 11.152344 9.175781 C 10.980469 9.214844 10.800781 9.199219 10.628906 9.199219 C 10.21875 9.199219 9.785156 9.164062 9.40625 9.335938 C 9.03125 9.503906 8.757812 9.84375 8.628906 10.207031 C 8.558594 10.398438 8.535156 10.800781 8.285156 10.863281 C 8.007812 10.929688 7.640625 10.855469 7.484375 10.621094 C 7.324219 10.382812 7.316406 10.097656 7.1875 9.855469 C 7.046875 9.589844 6.695312 9.375 6.414062 9.253906 C 6.058594 9.101562 5.65625 9.125 5.277344 9.140625 C 5 9.152344 4.699219 9.160156 4.476562 8.972656 C 4.289062 8.816406 4.234375 8.632812 4.136719 8.425781 L 4.128906 8.425781 C 4.128906 8.777344 4.269531 9.136719 4.386719 9.464844 C 4.507812 9.800781 4.660156 10.121094 4.824219 10.4375 C 4.929688 10.640625 5.035156 10.847656 5.195312 11.015625 C 5.417969 11.246094 5.710938 11.414062 6 11.566406 C 6.226562 11.679688 6.460938 11.800781 6.71875 11.832031 C 7.027344 11.867188 7.382812 11.707031 7.652344 11.582031 C 7.773438 11.527344 7.910156 11.40625 8.046875 11.410156 C 8.277344 11.421875 8.484375 11.652344 8.691406 11.734375 C 8.859375 11.804688 9.046875 11.796875 9.222656 11.78125 C 9.445312 11.761719 9.632812 11.746094 9.839844 11.660156 C 10.296875 11.460938 10.769531 11.085938 11.054688 10.695312 C 11.246094 10.4375 11.371094 10.144531 11.503906 9.855469 C 11.585938 9.671875 11.675781 9.484375 11.734375 9.292969 C 11.804688 9.074219 11.839844 8.855469 11.871094 8.632812 C 11.882812 8.550781 11.921875 8.417969 11.886719 8.339844 M 1.164062 9.671875 C 1.164062 9.960938 1.441406 10.230469 1.621094 10.4375 C 1.746094 10.585938 1.875 10.734375 2.027344 10.855469 C 2.460938 11.199219 3.074219 11.429688 3.632812 11.507812 C 3.78125 11.53125 3.925781 11.539062 4.074219 11.550781 C 4.15625 11.554688 4.25 11.570312 4.332031 11.550781 C 4.269531 11.378906 4.132812 11.269531 4.035156 11.117188 C 3.996094 11.054688 4 10.964844 3.917969 10.929688 C 3.75 10.859375 3.546875 10.917969 3.375 10.847656 C 3.214844 10.785156 3.128906 10.636719 2.953125 10.605469 C 2.671875 10.558594 2.382812 10.585938 2.109375 10.488281 C 1.714844 10.339844 1.429688 9.984375 1.183594 9.671875 L 1.164062 9.671875 M 14.8125 9.671875 C 14.566406 9.984375 14.28125 10.339844 13.886719 10.488281 C 13.605469 10.589844 13.304688 10.554688 13.015625 10.609375 C 12.855469 10.640625 12.769531 10.789062 12.621094 10.847656 C 12.449219 10.914062 12.253906 10.859375 12.085938 10.925781 C 12 10.964844 12.003906 11.050781 11.960938 11.117188 C 11.863281 11.269531 11.726562 11.375 11.664062 11.550781 C 11.746094 11.570312 11.839844 11.554688 11.921875 11.550781 C 12.070312 11.539062 12.214844 11.53125 12.363281 11.507812 C 12.921875 11.429688 13.535156 11.199219 13.96875 10.855469 C 14.121094 10.734375 14.25 10.585938 14.375 10.4375 C 14.554688 10.230469 14.832031 9.960938 14.832031 9.671875 L 14.8125 9.671875 M 3.339844 9.863281 C 3.355469 10.054688 3.453125 10.210938 3.5625 10.371094 C 3.75 10.652344 3.996094 10.96875 4.347656 11.082031 C 4.53125 11.140625 4.710938 11.058594 4.890625 11.097656 C 5.070312 11.132812 5.195312 11.375 5.40625 11.316406 C 5.285156 11.160156 5.113281 11.027344 4.976562 10.886719 C 4.773438 10.675781 4.582031 10.480469 4.347656 10.300781 C 4.269531 10.234375 4.191406 10.160156 4.101562 10.113281 C 3.933594 10.023438 3.722656 10.125 3.550781 10.066406 C 3.445312 10.03125 3.410156 9.933594 3.339844 9.863281 M 12.648438 9.863281 C 12.605469 9.9375 12.550781 10.019531 12.464844 10.058594 C 12.289062 10.136719 12.058594 10.015625 11.886719 10.117188 C 11.542969 10.316406 11.277344 10.621094 11.011719 10.894531 C 10.878906 11.035156 10.707031 11.164062 10.589844 11.316406 C 10.792969 11.375 10.925781 11.148438 11.097656 11.097656 C 11.269531 11.050781 11.457031 11.136719 11.636719 11.085938 C 12.039062 10.964844 12.285156 10.589844 12.496094 10.273438 C 12.558594 10.175781 12.695312 9.984375 12.648438 9.863281 M 4.21875 11.171875 C 4.265625 11.347656 4.488281 11.503906 4.632812 11.605469 C 5.039062 11.886719 5.46875 11.960938 5.964844 11.929688 C 6.117188 11.917969 6.300781 11.917969 6.441406 11.851562 C 6.355469 11.785156 6.222656 11.761719 6.121094 11.71875 C 5.949219 11.644531 5.761719 11.515625 5.578125 11.476562 C 5.460938 11.453125 5.335938 11.492188 5.222656 11.457031 C 5.089844 11.414062 5.046875 11.261719 4.910156 11.234375 C 4.808594 11.214844 4.699219 11.257812 4.597656 11.257812 C 4.464844 11.253906 4.34375 11.207031 4.21875 11.171875 M 11.765625 11.171875 C 11.644531 11.222656 11.496094 11.261719 11.363281 11.257812 C 11.273438 11.253906 11.175781 11.214844 11.085938 11.234375 C 10.949219 11.261719 10.90625 11.414062 10.773438 11.457031 C 10.660156 11.492188 10.535156 11.453125 10.417969 11.476562 C 10.230469 11.515625 10.046875 11.644531 9.875 11.71875 C 9.773438 11.761719 9.640625 11.785156 9.554688 11.851562 C 9.695312 11.917969 9.878906 11.917969 10.03125 11.929688 C 10.523438 11.960938 10.949219 11.890625 11.351562 11.609375 C 11.480469 11.523438 11.597656 11.425781 11.695312 11.308594 C 11.722656 11.273438 11.777344 11.214844 11.765625 11.171875 M 2.300781 11.324219 C 2.390625 11.574219 2.707031 11.746094 2.945312 11.859375 C 3.113281 11.941406 3.285156 12.03125 3.46875 12.078125 C 3.820312 12.171875 4.214844 12.167969 4.578125 12.136719 C 4.785156 12.117188 5.03125 12.113281 5.210938 12.015625 L 5.210938 11.996094 C 5.003906 11.910156 4.773438 11.78125 4.550781 11.734375 C 4.414062 11.707031 4.269531 11.746094 4.128906 11.714844 C 3.96875 11.675781 3.839844 11.566406 3.667969 11.550781 C 3.390625 11.523438 3.101562 11.585938 2.824219 11.535156 C 2.695312 11.511719 2.574219 11.457031 2.457031 11.402344 C 2.40625 11.375 2.359375 11.335938 2.300781 11.324219 M 10.785156 11.996094 L 10.785156 12.015625 C 10.96875 12.113281 11.210938 12.117188 11.417969 12.136719 C 11.78125 12.167969 12.175781 12.171875 12.527344 12.078125 C 12.710938 12.03125 12.882812 11.941406 13.050781 11.859375 C 13.289062 11.746094 13.601562 11.574219 13.695312 11.324219 C 13.636719 11.335938 13.589844 11.375 13.539062 11.402344 C 13.417969 11.457031 13.292969 11.515625 13.160156 11.535156 C 12.886719 11.582031 12.601562 11.523438 12.324219 11.550781 C 12.15625 11.566406 12.027344 11.675781 11.867188 11.714844 C 11.726562 11.746094 11.582031 11.707031 11.445312 11.734375 C 11.222656 11.78125 10.988281 11.90625 10.785156 11.996094 M 3.953125 12.367188 L 3.953125 12.375 C 4.839844 12.714844 5.933594 12.648438 6.789062 12.261719 C 7.089844 12.125 7.375 11.957031 7.652344 11.78125 L 7.882812 11.632812 C 7.910156 11.617188 7.949219 11.578125 7.984375 11.578125 C 8.0625 11.582031 8.175781 11.683594 8.242188 11.722656 C 8.472656 11.859375 8.695312 12.015625 8.9375 12.132812 C 9.308594 12.304688 9.695312 12.421875 10.09375 12.519531 C 10.375 12.589844 10.660156 12.664062 10.949219 12.675781 C 11.367188 12.691406 11.832031 12.546875 12.179688 12.332031 C 12.113281 12.308594 12.011719 12.332031 11.941406 12.332031 C 11.796875 12.332031 11.648438 12.316406 11.507812 12.289062 C 11.34375 12.257812 11.1875 12.195312 11.023438 12.167969 C 10.839844 12.140625 10.65625 12.144531 10.472656 12.125 C 10.207031 12.089844 9.945312 12.027344 9.683594 11.984375 C 9.464844 11.945312 9.246094 11.925781 9.03125 11.882812 C 8.78125 11.832031 8.535156 11.746094 8.304688 11.648438 C 8.234375 11.621094 8.164062 11.589844 8.09375 11.554688 C 8.0625 11.539062 8.03125 11.515625 7.992188 11.519531 C 7.90625 11.535156 7.808594 11.617188 7.726562 11.652344 C 7.515625 11.75 7.300781 11.839844 7.074219 11.898438 C 6.75 11.984375 6.410156 12.003906 6.074219 12.03125 C 5.835938 12.054688 5.597656 12.09375 5.359375 12.128906 C 5.082031 12.167969 4.835938 12.28125 4.570312 12.335938 C 4.363281 12.378906 4.164062 12.367188 3.953125 12.367188 M 4.542969 13.5625 C 4.582031 13.570312 4.640625 13.605469 4.679688 13.59375 C 4.734375 13.578125 4.75 13.503906 4.808594 13.496094 C 4.863281 13.492188 4.976562 13.546875 5.027344 13.570312 C 5.097656 13.601562 5.042969 13.679688 5.070312 13.734375 C 5.089844 13.769531 5.164062 13.785156 5.203125 13.796875 L 5.203125 13.535156 L 5.195312 13.0625 C 5.15625 13.054688 5.097656 13.015625 5.058594 13.027344 C 5.003906 13.039062 4.949219 13.121094 4.914062 13.160156 C 4.804688 13.277344 4.601562 13.414062 4.542969 13.5625 M 10.785156 13.796875 C 10.824219 13.789062 10.90625 13.773438 10.925781 13.734375 C 10.960938 13.660156 10.894531 13.597656 10.996094 13.5625 C 11.042969 13.542969 11.136719 13.488281 11.1875 13.5 C 11.242188 13.511719 11.257812 13.578125 11.308594 13.597656 C 11.347656 13.613281 11.414062 13.574219 11.453125 13.5625 C 11.417969 13.492188 11.34375 13.4375 11.289062 13.382812 C 11.1875 13.273438 11.082031 13.136719 10.957031 13.050781 C 10.917969 13.019531 10.820312 13.042969 10.792969 13.085938 C 10.761719 13.128906 10.785156 13.226562 10.785156 13.277344 L 10.785156 13.796875 M 5.285156 13.820312 C 5.429688 13.847656 5.613281 13.9375 5.761719 13.914062 C 5.953125 13.882812 5.953125 13.679688 5.835938 13.578125 C 5.96875 13.558594 6.019531 13.402344 5.925781 13.3125 C 5.847656 13.234375 5.695312 13.222656 5.589844 13.195312 C 5.558594 13.1875 5.492188 13.15625 5.46875 13.179688 C 5.433594 13.214844 5.425781 13.3125 5.414062 13.355469 C 5.371094 13.507812 5.300781 13.667969 5.285156 13.820312 M 5.066406 13.203125 L 5.066406 13.449219 L 4.882812 13.390625 L 5.046875 13.203125 L 5.066406 13.203125 M 9.96875 13.296875 C 9.984375 13.503906 10.078125 13.75 10.152344 13.949219 L 10.277344 13.910156 L 10.269531 13.839844 L 10.214844 13.640625 L 10.34375 13.636719 L 10.609375 13.824219 L 10.765625 13.796875 L 10.765625 13.777344 L 10.460938 13.5625 C 10.617188 13.496094 10.648438 13.253906 10.453125 13.207031 C 10.304688 13.167969 10.109375 13.269531 9.96875 13.296875 M 10.929688 13.210938 L 10.941406 13.210938 L 11.105469 13.398438 L 10.921875 13.460938 L 10.929688 13.210938 M 5.53125 13.460938 C 5.542969 13.425781 5.550781 13.34375 5.582031 13.324219 C 5.625 13.296875 5.792969 13.355469 5.816406 13.390625 C 5.851562 13.449219 5.796875 13.511719 5.734375 13.507812 C 5.707031 13.507812 5.679688 13.496094 5.652344 13.488281 C 5.613281 13.480469 5.574219 13.472656 5.53125 13.460938 M 6.121094 13.320312 L 5.992188 13.984375 C 6.144531 14.003906 6.339844 14.085938 6.488281 14.011719 C 6.675781 13.917969 6.730469 13.570312 6.570312 13.4375 C 6.46875 13.351562 6.253906 13.332031 6.121094 13.320312 M 10.179688 13.535156 C 10.171875 13.496094 10.132812 13.421875 10.148438 13.386719 C 10.167969 13.335938 10.363281 13.308594 10.40625 13.335938 C 10.464844 13.375 10.449219 13.457031 10.390625 13.484375 C 10.359375 13.496094 10.328125 13.503906 10.296875 13.511719 C 10.257812 13.523438 10.21875 13.53125 10.179688 13.535156 M 9.359375 14.097656 C 9.398438 14.09375 9.488281 14.09375 9.511719 14.058594 C 9.546875 14.003906 9.507812 13.921875 9.589844 13.902344 C 9.644531 13.890625 9.757812 13.855469 9.808594 13.871094 C 9.863281 13.886719 9.867188 13.960938 9.914062 13.984375 C 9.957031 14.007812 10.023438 13.980469 10.066406 13.976562 C 10.015625 13.835938 9.890625 13.703125 9.804688 13.578125 C 9.761719 13.519531 9.722656 13.4375 9.667969 13.386719 C 9.636719 13.355469 9.546875 13.367188 9.511719 13.390625 C 9.46875 13.421875 9.472656 13.535156 9.460938 13.578125 C 9.433594 13.753906 9.398438 13.925781 9.359375 14.097656 M 6.800781 13.433594 L 6.707031 14.105469 L 6.839844 14.105469 L 6.875 13.933594 L 6.945312 13.449219 L 6.800781 13.433594 M 9.261719 13.734375 C 9.1875 13.746094 9.113281 13.75 9.039062 13.757812 C 9.015625 13.761719 8.976562 13.753906 8.964844 13.78125 C 8.902344 13.910156 9.074219 13.84375 9.117188 13.871094 C 9.195312 13.921875 9.082031 13.992188 9.039062 14.007812 C 8.808594 14.089844 8.648438 13.773438 8.800781 13.625 C 8.859375 13.570312 8.957031 13.539062 9.03125 13.582031 C 9.058594 13.597656 9.082031 13.632812 9.113281 13.640625 C 9.152344 13.652344 9.207031 13.625 9.242188 13.613281 C 9.179688 13.417969 8.894531 13.394531 8.738281 13.503906 C 8.59375 13.597656 8.574219 13.769531 8.621094 13.914062 C 8.6875 14.125 8.929688 14.183594 9.132812 14.109375 C 9.183594 14.089844 9.261719 14.058594 9.285156 14.007812 C 9.316406 13.949219 9.28125 13.796875 9.261719 13.734375 M 6.15625 13.898438 L 6.238281 13.460938 C 6.308594 13.464844 6.414062 13.472656 6.46875 13.523438 C 6.554688 13.601562 6.515625 13.847656 6.414062 13.90625 C 6.339844 13.949219 6.234375 13.910156 6.15625 13.898438 M 7.304688 13.476562 C 7.304688 13.644531 7.28125 13.808594 7.277344 13.976562 C 7.277344 14.019531 7.246094 14.105469 7.277344 14.144531 C 7.300781 14.167969 7.390625 14.164062 7.402344 14.128906 C 7.4375 14.015625 7.425781 13.847656 7.425781 13.726562 L 7.433594 13.726562 L 7.609375 14.035156 L 7.695312 14.164062 L 7.835938 14.175781 L 7.863281 13.683594 L 7.863281 13.515625 L 7.734375 13.503906 L 7.71875 13.933594 L 7.523438 13.613281 L 7.445312 13.496094 L 7.304688 13.476562 M 7.976562 13.503906 L 7.984375 13.777344 L 7.992188 14.175781 L 8.535156 14.164062 L 8.535156 14.054688 L 8.25 14.0625 L 8.144531 14.046875 L 8.132812 13.871094 L 8.488281 13.863281 L 8.488281 13.753906 L 8.132812 13.761719 L 8.132812 13.613281 L 8.515625 13.605469 L 8.507812 13.5 L 8.371094 13.492188 L 7.976562 13.503906 M 9.617188 13.546875 L 9.746094 13.761719 L 9.5625 13.785156 C 9.570312 13.71875 9.574219 13.601562 9.617188 13.546875 M 5.515625 13.578125 C 5.570312 13.5625 5.722656 13.617188 5.757812 13.652344 C 5.796875 13.691406 5.78125 13.765625 5.726562 13.789062 C 5.675781 13.804688 5.5 13.78125 5.46875 13.738281 C 5.449219 13.710938 5.480469 13.589844 5.515625 13.578125 Z M 5.515625 13.578125 "/>
</g>
</svg>
